#define mainicon_width 64
#define mainicon_height 64
static unsigned char mainicon_bits[] = {
   0x00, 0x00, 0x00, 0x00, 0x00, 0x00, 0x00, 0x00, 0x00, 0x00, 0x00, 0x00,
   0x00, 0x00, 0x00, 0x00, 0x00, 0x00, 0x00, 0x00, 0x00, 0x00, 0x00, 0x00,
   0x00, 0x00, 0x00, 0x00, 0x00, 0x00, 0x00, 0x00, 0x00, 0x00, 0x00, 0x00,
   0x80, 0x00, 0x00, 0x00, 0x00, 0x00, 0x00, 0x00, 0x00, 0x01, 0x00, 0x00,
   0x00, 0x00, 0x00, 0x00, 0x00, 0x04, 0x00, 0x00, 0x00, 0x00, 0x00, 0x00,
   0x00, 0x08, 0x00, 0x00, 0x00, 0x00, 0x00, 0x00, 0x00, 0x10, 0x00, 0x00,
   0x00, 0x00, 0x00, 0x00, 0x00, 0x20, 0x00, 0x00, 0x00, 0x00, 0x00, 0x00,
   0x00, 0x48, 0x00, 0x00, 0x00, 0x00, 0x00, 0x00, 0x00, 0x80, 0x00, 0x00,
   0x00, 0x00, 0x00, 0x00, 0x00, 0x20, 0x02, 0x00, 0x00, 0x00, 0x00, 0x00,
   0x00, 0x80, 0x00, 0x00, 0x00, 0x00, 0x00, 0x00, 0x00, 0x40, 0x02, 0x00,
   0x00, 0x00, 0x00, 0x00, 0x00, 0x40, 0x04, 0x00, 0x00, 0x00, 0x00, 0x00,
   0x00, 0x80, 0x00, 0x00, 0x00, 0x00, 0x00, 0x00, 0x00, 0x80, 0x0a, 0x00,
   0x00, 0x00, 0x00, 0x00, 0x00, 0x00, 0x02, 0x00, 0x00, 0x00, 0x00, 0x00,
   0x00, 0xa0, 0x14, 0x00, 0x00, 0x00, 0x00, 0x00, 0x00, 0x00, 0x02, 0x00,
   0x00, 0x00, 0x00, 0x00, 0x00, 0xa0, 0x28, 0x00, 0x00, 0x00, 0x00, 0x00,
   0x00, 0x00, 0x05, 0x00, 0x00, 0x00, 0x00, 0x00, 0x00, 0x40, 0x10, 0x00,
   0x00, 0x00, 0x00, 0x00, 0x00, 0x20, 0x85, 0x00, 0x00, 0x00, 0x00, 0x00,
   0x00, 0x80, 0x00, 0x02, 0x00, 0x00, 0x00, 0x00, 0x00, 0x20, 0x50, 0x05,
   0x00, 0x00, 0x00, 0x00, 0x00, 0x00, 0x90, 0x05, 0x00, 0x00, 0x00, 0x00,
   0x00, 0x00, 0x66, 0x09, 0x80, 0x00, 0x00, 0x00, 0x00, 0x80, 0xe8, 0x22,
   0x20, 0x10, 0x00, 0x00, 0x00, 0x28, 0x9d, 0x0e, 0x00, 0x00, 0x00, 0x00,
   0x00, 0xa2, 0xd7, 0x0a, 0x00, 0x28, 0x01, 0x00, 0x00, 0xf4, 0x6a, 0x0d,
   0x00, 0x48, 0x14, 0x00, 0xa0, 0x1f, 0x4a, 0x03, 0x00, 0x21, 0x40, 0x49,
   0x5d, 0x50, 0xf8, 0x04, 0x00, 0x22, 0x08, 0x00, 0x10, 0xf2, 0xab, 0x01,
   0x00, 0x10, 0x70, 0x88, 0x69, 0xf8, 0x5d, 0x03, 0x00, 0x50, 0xf3, 0x01,
   0x54, 0x37, 0xd2, 0x03, 0x00, 0x80, 0xe6, 0x09, 0x7a, 0x08, 0xf8, 0x03,
   0x00, 0x00, 0x7f, 0x1d, 0xfa, 0x03, 0xdc, 0x03, 0xc0, 0x0b, 0x70, 0x1f,
   0xd4, 0x03, 0xff, 0x03, 0xc0, 0x23, 0x00, 0x60, 0x03, 0x81, 0xd3, 0x03,
   0xc0, 0x97, 0x02, 0x00, 0x07, 0x60, 0xea, 0x03, 0xc0, 0x57, 0x08, 0xc0,
   0x07, 0x50, 0xe9, 0x01, 0x80, 0x9f, 0x1a, 0xc0, 0x0f, 0xac, 0xfa, 0x01,
   0x80, 0x7f, 0xe1, 0x60, 0x19, 0xae, 0xfe, 0x00, 0x00, 0xff, 0xd5, 0xf3,
   0x1e, 0xeb, 0xff, 0x00, 0x00, 0xfe, 0xff, 0xc1, 0x1e, 0xbe, 0xff, 0x00,
   0x00, 0xfc, 0x7f, 0x06, 0x00, 0xfe, 0x7f, 0x00, 0x00, 0xf8, 0xff, 0x1f,
   0xfe, 0xff, 0x7f, 0x00, 0x00, 0xf0, 0xff, 0xff, 0xff, 0xff, 0x1f, 0x00,
   0x00, 0xe0, 0xff, 0xff, 0xff, 0xff, 0x2f, 0x00, 0x00, 0x80, 0xff, 0xff,
   0xff, 0xff, 0x17, 0x00, 0x00, 0x00, 0xfe, 0xff, 0xff, 0xff, 0x11, 0x00,
   0x00, 0x00, 0xf8, 0xff, 0xff, 0x3f, 0x06, 0x00, 0x00, 0x00, 0x40, 0xff,
   0xff, 0xaf, 0x0a, 0x00, 0x00, 0x00, 0x00, 0x50, 0x55, 0x90, 0x02, 0x00,
   0x00, 0x00, 0x00, 0x00, 0x00, 0xa5, 0x00, 0x00, 0x00, 0x00, 0x00, 0x00,
   0x80, 0x5a, 0x00, 0x00, 0x00, 0x00, 0x00, 0x00, 0x00, 0x15, 0x00, 0x00,
   0x00, 0x00, 0x00, 0x00, 0x49, 0x01, 0x00, 0x00, 0x00, 0x00, 0x00, 0x20,
   0x12, 0x00, 0x00, 0x00, 0x00, 0x00, 0x00, 0x00, 0x00, 0x00, 0x00, 0x00,
   0x00, 0x00, 0x00, 0x00, 0x00, 0x00, 0x00, 0x00 };
